<svg width="89" height="39" fill="none" xmlns="http://www.w3.org/2000/svg"><g clip-path="url(#clip0_14731_19013)"><path d="M26.135.085L5.02 0H5a4.995 4.995 0 00-5 4.995V31.55a4.992 4.992 0 004.993 4.994h.027l21.125-.067v-1.274a24.816 24.816 0 00-6.651-16.912 24.683 24.683 0 006.641-16.935V.085zM9.955 11.731c-2.572-1.047-4.626-1.241-7.4-1.382v-.047a9.05 9.05 0 007.615-7.725l4.622.02c-.31 3.693-2.038 6.705-4.838 9.134zm-6.68-8.463a2.436 2.436 0 011.722-.713l2.113.022c0 .979-.529 2.199-1.423 3.11C4.794 6.6 3.577 7.11 2.58 7.11l-.024-2.124a2.413 2.413 0 01.72-1.718zm-.72 23.013v-4.597C5.89 22 8.66 22.865 11.02 25.24c2.361 2.374 3.457 5.354 3.755 8.7l-4.608.013a9.036 9.036 0 00-7.612-7.667v-.005zm2.465 7.71a2.44 2.44 0 01-2.44-2.44v-2.044c.976 0 2.217.513 3.11 1.42.891.907 1.421 2.134 1.421 3.024l-2.091.04zm17.998-.055l-4.957.015A16.886 16.886 0 002.555 18.406l.024-5.068c5.464.334 9.905 2.342 13.774 6.221 3.869 3.879 6.345 8.917 6.663 14.39l.002-.013zm-5.95-17.94c-1.398-1.224-2.326-1.773-3.956-2.665a16.733 16.733 0 004.933-10.722l4.712-.012c-.278 5.17-2.164 9.605-5.69 13.4z" fill="#2376F3"/><path d="M34.579 27.845h3.84v-3.928l1.95-2.127 3.575 6.055h4.342l-5.169-8.655 5.052-5.792h-4.55l-5.14 6.058h-.06V8.434h-3.84v19.411z" fill="#3E4B5B"/><path d="M55.312 28.111c4.491 0 7.652-3.072 7.652-7.474 0-4.433-3.161-7.445-7.652-7.445-4.608 0-7.682 3.131-7.682 7.445s3.07 7.474 7.682 7.474zm0-3.487c-2.215 0-3.752-1.742-3.752-3.987 0-2.276 1.506-3.99 3.752-3.99 2.127 0 3.723 1.626 3.723 3.99 0 2.364-1.655 3.987-3.723 3.987zm9.504 3.221h3.87v-6.676c0-2.187 1.272-3.782 3.665-3.782.236 0 .621 0 1.034.029V13.19h-.296c-1.683 0-3.25.837-4.342 2.306h-.06v-2.098h-3.87v14.447zm15.58.266c1.89 0 3.338-.709 4.342-2.007l.059.03v1.713h3.693V13.398h-3.87v1.662l-.06.03c-1.033-1.242-2.57-1.89-4.253-1.89-3.87 0-6.795 3.1-6.795 7.474 0 4.46 2.925 7.444 6.884 7.444v-.006zm.738-3.48c-2.187 0-3.693-1.625-3.693-3.929 0-2.481 1.596-4.048 3.693-4.048 2.068 0 3.663 1.714 3.663 4.048 0 2.365-1.683 3.93-3.663 3.93z" fill="#3E4B5B"/></g><defs><clipPath id="clip0_14731_19013"><path fill="#fff" d="M0 0h88.49v38.27H0z"/></clipPath></defs></svg>